<svg xmlns="http://www.w3.org/2000/svg" viewBox="0 0 74.36 138.19"><defs><style>.cls-1{fill:#0ba95a;}.cls-2{fill:#157857;}.cls-3{fill:#08684c;}.cls-4{fill:#025c40;}.cls-5{fill:#d4e06f;}.cls-6{fill:#61be7b;}.cls-7{fill:#05986f;}</style></defs><title>Artboard 4</title><g id="Green_Rupee" data-name="Green Rupee"><polygon class="cls-1" points="15.22 45.67 15.22 93.83 38.28 115.2 61.34 94.13 61.34 45.67 37.33 26.93 15.22 45.67"/><polygon class="cls-2" points="61.34 45.67 74.36 33.23 37.33 0 37.33 26.93 61.34 45.67"/><polygon class="cls-3" points="61.34 45.67 61.34 94.13 74.36 104.67 74.36 33.23 61.34 45.67"/><polygon class="cls-4" points="38.28 115.2 38.28 138.19 74.36 104.67 61.34 94.13 38.28 115.2"/><polygon class="cls-5" points="37.33 26.93 37.33 0 0 33.67 15.22 45.67 37.33 26.93"/><polygon class="cls-6" points="15.22 45.67 0 33.67 0 104.67 15.22 93.83 15.22 45.67"/><polygon class="cls-7" points="15.22 93.83 0 104.67 38.28 138.19 38.28 115.2 15.22 93.83"/></g></svg>