<svg xmlns="http://www.w3.org/2000/svg" viewBox="0 0 70.91 138.19"><defs><style>.cls-1{fill:none;}.cls-2{fill:#d7d6d6;}.cls-3{fill:#fff;}.cls-4{fill:#335d99;}.cls-5{fill:#173b53;}.cls-6{fill:#fee638;}.cls-7{fill:#f2d83b;}.cls-8{fill:#eed71f;}.cls-9{fill:#f0a72c;}</style></defs><title>Artboard 5</title><g id="Master_Sword" data-name="Master Sword"><g id="Gold_Square" data-name="Gold Square"><rect class="cls-1" x="35.45" y="100.04" height="38.15"/><path class="cls-2" d="M33.57,82.7l.14,5.3.76-.06.78-.75.71.72L37.2,88l.14-5.3h4s0,1.09.07,2.39V11.65c0-.77-4.54-11-4.75-11.45S35.8.13,35.32.2,31.2,8.51,30.43,10.25a7,7,0,0,0-.7,2.93l-.26,71.08c0-.9.05-1.56.05-1.56Zm-3-71,5-11v.65L33.31,11.74V38.66l7.8-4.44V37.3l-7.8,4.25v2.54l7.8-4.48v4.5l-7.88,5V82.56H30.61Z"/><polygon class="cls-3" points="33.23 49.09 41.11 44.11 41.11 39.61 33.31 44.09 33.31 41.55 41.11 37.3 41.11 34.22 33.31 38.66 33.31 11.74 35.64 1.37 35.64 0.72 30.61 11.68 30.61 82.56 33.23 82.56 33.23 49.09"/><path class="cls-4" d="M35.25,100.23,30.2,95.74c.11,1-.19,2.71-.19,3.64,0,1.19-.21,2.23-1.12,5.38s.56,33.43.56,33.43h6V100Z"/><path class="cls-4" d="M39.64,91.55c0-.79,0-1.39.06-1.71.1-2.1.42-7.14.42-7.14H37.34L37.2,88,36,87.91Z"/><path class="cls-4" d="M69.66,82.35c-1.68.28-13.06,3-13.41,3.49S53.18,92.61,53,93.17s-.27,1.26-2.51.35c-1.26-.52-4-1.64-6.17-2.6.1.29-.6.69-.83,1.64-.31,1.31.27,3.35-1.41,2.2l-.49-.31-1,.89a.76.76,0,0,1,0,.15c0,.36.06,1.15.18,2.17a4.89,4.89,0,0,1,.13-2.54c.49-.62,15.22,7,16,7.4s1.4.56,2.66-1.46,11.3-17.38,11.3-17.8S71.33,82.07,69.66,82.35Z"/><path class="cls-4" d="M34.47,87.94l-.76.06-.14-5.3H29.52s0,.66-.05,1.56c0,1.86-.11,4.74,0,5.07.14.49-6.77,3.28-9,4.19s-2.31.21-2.52-.35S15,86.33,14.65,85.84,2.93,82.63,1.25,82.35s-1.18.49-1.18.91,10,15.77,11.3,17.8,1.89,1.88,2.66,1.46,12.89-6.68,15.5-7.37L28.21,94Z"/><path class="cls-4" d="M43.46,90.54a13.45,13.45,0,0,1-1.81-1C42,90.35,42.69,90.36,43.46,90.54Z"/><path class="cls-4" d="M39.38,110.44c0-3.07,0-9.28.15-14.13L35.46,100v38.15h.48c.64-.86,1.14-2.13,2.24-5.74S39.43,115.49,39.38,110.44Z"/><path class="cls-4" d="M42,104.76a37.13,37.13,0,0,1,.29,6.08A35.59,35.59,0,0,0,42,104.76Z"/><path class="cls-4" d="M41.42,88.27a5.18,5.18,0,0,0,.07.75c0-.73,0-2.46,0-3.93,0-1.3-.07-2.39-.07-2.39S41.37,86,41.42,88.27Z"/><path class="cls-5" d="M40.58,95.34l-1,1c-.1,4.85-.18,11.06-.15,14.13,0,5-.1,18.39-1.2,22s-1.6,4.88-2.24,5.74h5.52s.86-17.55.85-27.35a37.13,37.13,0,0,0-.29-6.08,61.11,61.11,0,0,1-1.25-7.1c-.12-1-.18-1.81-.18-2.17A.76.76,0,0,0,40.58,95.34Z"/><path class="cls-5" d="M41.42,88.27c-.05-2.31,0-5.57,0-5.57H40.12s-.32,5-.42,7.14c0,.32,0,.92-.06,1.71L42.08,94l-.52.48.49.31c1.68,1.15,1.1-.89,1.41-2.2.23-1,.93-1.35.83-1.64,0-.11-.18-.2-.51-.3l-.32-.08c-.77-.18-1.47-.19-1.81-1a2.56,2.56,0,0,1-.16-.55A5.18,5.18,0,0,1,41.42,88.27Z"/><polygon class="cls-6" points="35.25 87.19 34.47 87.94 28.21 93.97 35.25 93.97 35.25 87.19"/><polygon class="cls-7" points="35.25 93.97 28.21 93.97 29.53 95.15 30.2 95.74 35.25 100.23 35.25 93.97"/><polygon class="cls-8" points="42.08 93.97 39.64 91.55 35.96 87.91 35.25 87.19 35.25 93.97 42.08 93.97"/><polygon class="cls-9" points="35.25 93.97 35.25 100.23 35.45 100.04 35.46 100.04 39.53 96.31 40.58 95.34 41.56 94.45 42.08 93.97 35.25 93.97"/></g></g></svg>