<svg xmlns="http://www.w3.org/2000/svg" viewBox="0 0 146.75 138.77"><defs><style>.cls-1{fill:#0576ae;}.cls-2{fill:#0b6994;}.cls-3{fill:#22221f;}.cls-4{fill:#b6ceea;}</style></defs><title>Artboard 1</title><g id="Ocarina"><path class="cls-1" d="M69.19,31.48a1.46,1.46,0,0,0,.27-.88Z"/><path class="cls-1" d="M139.79,24.09c-7.43-3.71-7.08-4.06-20.39-3.43s-18.77,1.82-21.85,3.22-2.45-2.1-4.62-5.46S82.91,5.18,80.67,4.2,77,.77,74.23.41l-.45,0a6.52,6.52,0,0,1,.7.35c2.42,1.32,1.92,6.54,2,9.62S76,18.7,78.22,22.43s3.45,5.79,0,6.82-10,4.62-9.64,3.55h0c-.51.67-1.45,1.28-3.53,2.09-4,1.54-22,12.33-28.86,20.1S18.4,73.54,12.87,84.19.47,111.58.12,117.46s-.59,19.19,9.94,20.88c.46.07,1.15.13,2,.18-3.51-.3-6.89-3-7.81-3.83s16.81-1.4,64.3-19.89c47.23-18.39,75.79-64.48,76.1-65a39.93,39.93,0,0,0,1.93-8.7C147,34.32,147.21,27.8,139.79,24.09ZM28.91,115.78a5.54,5.54,0,1,1,5.53-5.53A5.54,5.54,0,0,1,28.91,115.78ZM37.31,100a5.54,5.54,0,1,1,5.53-5.53A5.53,5.53,0,0,1,37.31,100ZM42.84,82.3a5.54,5.54,0,1,1,5.54-5.54A5.54,5.54,0,0,1,42.84,82.3ZM83,40.18c-.66,2.43-9.25,3.08-17,5.88s-17.75,11-29.7,21.48S9.72,108.87,7.56,113.31c-3.4,7-3,3.64-3,0s2.8-9.44,10.74-26.62S33.15,63,48,49.8A63.76,63.76,0,0,1,81.72,34.11C84.52,33.83,83.68,37.75,83,40.18ZM94.82,82.3a5.54,5.54,0,1,1,5.53-5.54A5.54,5.54,0,0,1,94.82,82.3Zm4.9-17.65a5.54,5.54,0,1,1,5.54-5.54A5.54,5.54,0,0,1,99.72,64.65Zm7.71-14.85A5.54,5.54,0,1,1,113,44.26,5.54,5.54,0,0,1,107.43,49.8Zm16.11-6.73a5.53,5.53,0,1,1,5.53-5.53A5.53,5.53,0,0,1,123.54,43.07Z"/><path class="cls-1" d="M68.2,130.91c-10.72,5.11-30.52,7.33-34.44,7.64s-17.21-.07-21,0l-.62,0c5.79.33,18.84.23,18.84.23,3.29,0,24.86-2.39,36.14-7s31.38-15.13,42.8-26.62,20.59-23.6,25.57-33.41a157.19,157.19,0,0,0,9.1-21.82C140,63.32,131.28,79.33,117.09,97.22S78.92,125.8,68.2,130.91Z"/><path class="cls-2" d="M68.55,114.8c-47.49,18.49-65.28,19-64.3,19.89s4.3,3.53,7.81,3.83h.11l.62,0c3.76-.07,17.05.3,21,0S57.48,136,68.2,130.91s34.67-15.76,48.89-33.69S140,63.32,144.62,49.9a1,1,0,0,1,0-.1h0C144.34,50.32,115.78,96.41,68.55,114.8Z"/><circle class="cls-3" cx="99.72" cy="59.11" r="5.53"/><circle class="cls-3" cx="94.82" cy="76.76" r="5.53"/><circle class="cls-3" cx="42.84" cy="76.76" r="5.53"/><circle class="cls-3" cx="37.31" cy="94.42" r="5.53"/><circle class="cls-3" cx="28.91" cy="110.25" r="5.53"/><circle class="cls-3" cx="123.54" cy="37.54" r="5.53"/><circle class="cls-3" cx="107.43" cy="44.26" r="5.53"/><path class="cls-4" d="M78.22,29.25c3.45-1,2.24-3.08,0-6.82s-1.73-9-1.78-12.09.46-8.3-2-9.62a6.52,6.52,0,0,0-.7-.35C71.65-.57,70.41.18,67.57,3.8S69.29,29,69.46,30.6a1.46,1.46,0,0,1-.27.88,6,6,0,0,0-.61,1.31h0C68.26,33.87,74.76,30.28,78.22,29.25Z"/><path class="cls-4" d="M81.72,34.11A63.76,63.76,0,0,0,48,49.8C33.15,63,23.26,69.5,15.32,86.69s-10.74,23-10.74,26.62-.42,7,3,0C9.72,108.87,24.38,78,36.33,67.54s22-18.68,29.7-21.48,16.34-3.45,17-5.88S84.52,33.83,81.72,34.11Z"/></g></svg>