<svg xmlns="http://www.w3.org/2000/svg" viewBox="0 0 150.45 158.38"><defs><style>.cls-1{fill:#127c48;}.cls-2{fill:#fff;}</style></defs><title>Artboard 6</title><g id="Red_Rupee" data-name="Red Rupee"><path class="cls-1" d="M133.05,11.53C110.42-10.23,55.71-1.69,17.63,41.41c-34.41,39-12.79,88.05,16.61,106.79,37.18,23.7,76.61.81,92.55-16.18C144.33,113.34,166.62,43.82,133.05,11.53ZM19.41,85.8c-11.1-7.66-10.69-21-1.62-33C25.9,42.09,38.88,35.33,47.08,42c7.59,6.12,8.21,21.31,1,32C39.81,86.18,27.57,91.43,19.41,85.8Zm71,67.23c-18.39,4.53-38.43,4.27-41.85-6.77C45.1,135,58.85,123.35,78.47,118.86c18.47-4.23,37.38-2.67,41,8.31C123.35,139,109.23,148.4,90.44,153Zm41.42-67.18C118.17,97.42,98.79,90.75,86.78,74c-9.16-12.77-12-34.9,3.21-44.81,19.49-12.74,41.84-3.9,46.84,11C141.33,53.7,145.59,74.26,131.86,85.85Z"/><path class="cls-2" d="M136.83,40.22c-5-14.94-27.35-23.78-46.84-11-15.16,9.91-12.37,32-3.21,44.81,12,16.76,31.39,23.43,45.08,11.86S141.33,53.7,136.83,40.22Z"/><path class="cls-2" d="M78.47,118.86C58.85,123.35,45.1,135,48.59,146.26c3.42,11,23.46,11.3,41.85,6.77,18.79-4.63,32.91-14,29-25.86C115.85,116.19,96.94,114.63,78.47,118.86Z"/><path class="cls-2" d="M47.08,42c-8.2-6.62-21.18.14-29.29,10.84-9.07,12-9.48,25.35,1.62,33,8.16,5.63,20.4.38,28.64-11.81C55.29,63.26,54.67,48.07,47.08,42Z"/></g></svg>